<?xml version="1.0" encoding="UTF-8"?>
<svg xmlns="http://www.w3.org/2000/svg" width="180" height="159" viewBox="0 0 180 159" fill="none">
  <g clip-path="url(#clip0_149_354)">
    <path d="M152.491 52.6471C160.768 49.2512 165.478 47.1333 170.322 45.3964C173.997 44.0795 177.498 44.7365 179.304 48.5853C181.182 52.5901 179.04 55.5149 175.617 57.2608C168.948 60.6627 162.382 64.6375 155.287 66.7344C146.03 69.4702 141.587 75.2299 139.646 84.1755C135.518 103.225 131.606 122.235 139.043 141.347C140.534 145.174 140.474 148.405 136.643 150.385C131.777 152.899 129.143 149.26 127.242 145.813C122.832 137.81 122.526 128.879 122.76 120.054C123.135 106.029 123.849 92.0051 128.358 77.8518C121.878 77.3928 116.196 77.3658 110.658 76.4629C106.876 75.8479 104.428 73.091 105.061 68.8193C105.601 65.1684 108.244 63.2035 111.603 63.7195C131.435 66.7554 139.799 54.663 145.991 38.7518C148.526 32.2361 152.566 26.2934 156.07 20.1737C158.323 16.2409 161.701 14.198 165.931 16.9339C169.614 19.3187 168.934 22.7206 166.966 26.2034C162.637 33.862 158.503 41.6256 152.485 52.6531L152.491 52.6471Z" fill="#0268A5"></path>
    <path d="M118.512 35.7759C118.59 39.4057 116.697 41.7786 113.448 42.4656C109.3 43.3445 106.54 40.9236 106.06 37.0358C105.553 32.917 108.325 30.3852 112.263 30.2382C115.656 30.1122 117.729 32.4971 118.512 35.7759Z" fill="#F7B23D"></path>
    <path d="M179.121 147.793C178.077 151.429 176.262 154.414 171.969 153.88C168.577 153.46 166.459 151.063 166.597 147.607C166.732 144.289 168.592 141.748 172.161 141.463C176.532 141.115 178.125 144.208 179.118 147.793H179.121Z" fill="#0268A5"></path>
    <path d="M12.4764 136.061C11.9004 140.321 9.44354 142.538 6.2247 142.409C2.44189 142.259 -0.578961 139.874 0.093005 135.524C0.617979 132.128 3.18285 130.244 6.72567 130.568C10.3045 130.895 11.8884 133.379 12.4764 136.061Z" fill="#0268A5"></path>
    <path d="M84.8088 0.608469C79.085 0.521473 79.0371 4.55027 78.5241 8.69306C76.8502 22.1504 76.5262 35.8357 72.4464 48.921C65.1267 48.4861 57.6601 40.1165 51.5224 48.5011C46.7737 54.9837 55.3652 56.7117 58.4941 60.6565C47.3766 62.8283 37.1741 66.7611 27.2626 71.5339C17.4531 76.2587 9.27254 82.7654 4.21779 92.6139C1.31094 98.2746 -0.746959 104.295 3.60282 110.064C8.0246 115.929 14.1743 115.554 20.492 113.661C23.4528 112.773 26.5307 111.219 29.4525 111.426C55.4552 113.265 69.7825 97.8486 78.2961 76.5077C86.8547 55.0557 89.2845 31.9929 90.5025 8.95705C90.7185 4.88025 90.6825 0.692464 84.8088 0.605469V0.608469ZM13.9043 100.584C24.8778 86.3502 36.7932 79.8735 51.5734 77.9746C43.6118 91.1679 31.1834 96.8016 13.9043 100.584Z" fill="#0268A5"></path>
    <path d="M114.987 150.127C104.458 135.161 110.481 119.685 113.112 104.343C114.708 95.0468 110.754 89.0351 102.808 85.1413C97.954 82.7624 92.2273 80.3535 88.5945 86.0923C84.1787 93.0639 91.2974 94.7168 96.1151 97.8337C91.8343 99.0876 88.1085 100.036 84.4757 101.268C68.9995 106.521 53.5293 111.753 43.7108 126.308C38.998 133.292 35.7311 141.023 41.1009 148.294C46.0506 154.999 53.8082 152.203 60.6899 150.451C72.8123 147.364 82.8858 140.093 93.6852 133.898C99.136 140.51 95.4732 150.277 102.505 155.761C105.37 157.993 107.998 160.549 111.786 157.819C114.393 155.941 117.126 153.172 114.984 150.127H114.987ZM53.9162 136.664C62.2708 122.636 76.0131 117.549 93.4963 112.26C82.3458 128.063 69.0085 133.817 53.9162 136.664Z" fill="#F7B23D"></path>
  </g>
  <defs>
    <clipPath id="clip0_149_354">
      <rect width="180" height="158.392" fill="white" transform="translate(0 0.608398)"></rect>
    </clipPath>
  </defs>
</svg>
