<?xml version="1.0" encoding="UTF-8"?>
<svg xmlns="http://www.w3.org/2000/svg" width="486" height="483" viewBox="0 0 486 483" fill="none">
  <path d="M486 240.341C486 373.078 378.395 480.683 245.659 480.683C112.922 480.683 5.3172 373.078 5.3172 240.341C5.3172 107.604 112.922 0 245.659 0C378.395 0 486 107.604 486 240.341ZM101.454 240.341C101.454 319.983 166.016 384.546 245.659 384.546C325.301 384.546 389.863 319.983 389.863 240.341C389.863 160.699 325.301 96.1365 245.659 96.1365C166.016 96.1365 101.454 160.699 101.454 240.341Z" fill="#0268A5"></path>
  <rect x="10.6346" y="44.665" width="14.8884" height="14.8884" rx="7.4442" fill="#F7B23D"></rect>
  <rect x="34.0306" y="44.665" width="14.8884" height="14.8884" rx="7.4442" fill="#F7B23D"></rect>
  <rect x="57.4267" y="44.665" width="14.8884" height="14.8884" rx="7.4442" fill="#F7B23D"></rect>
  <rect x="80.8228" y="44.665" width="14.8884" height="14.8884" rx="7.4442" fill="#F7B23D"></rect>
  <rect x="104.219" y="44.665" width="14.8884" height="14.8884" rx="7.4442" fill="#F7B23D"></rect>
  <rect x="127.615" y="44.665" width="14.8884" height="14.8884" rx="7.4442" fill="#F7B23D"></rect>
  <rect x="10.6346" y="68.0605" width="14.8884" height="14.8884" rx="7.4442" fill="#F7B23D"></rect>
  <rect x="34.0306" y="68.0605" width="14.8884" height="14.8884" rx="7.4442" fill="#F7B23D"></rect>
  <rect x="57.4267" y="68.0605" width="14.8884" height="14.8884" rx="7.4442" fill="#F7B23D"></rect>
  <rect x="80.8228" y="68.0605" width="14.8884" height="14.8884" rx="7.4442" fill="#F7B23D"></rect>
  <rect x="104.219" y="68.0605" width="14.8884" height="14.8884" rx="7.4442" fill="#F7B23D"></rect>
  <rect x="127.615" y="68.0605" width="14.8884" height="14.8884" rx="7.4442" fill="#F7B23D"></rect>
  <rect x="10.6346" y="91.457" width="14.8884" height="14.8884" rx="7.4442" fill="#F7B23D"></rect>
  <rect x="34.0306" y="91.457" width="14.8884" height="14.8884" rx="7.4442" fill="#F7B23D"></rect>
  <rect x="57.4267" y="91.457" width="14.8884" height="14.8884" rx="7.4442" fill="#F7B23D"></rect>
  <rect x="80.8228" y="91.457" width="14.8884" height="14.8884" rx="7.4442" fill="#F7B23D"></rect>
  <rect x="104.219" y="91.457" width="14.8884" height="14.8884" rx="7.4442" fill="#F7B23D"></rect>
  <rect x="127.615" y="91.457" width="14.8884" height="14.8884" rx="7.4442" fill="#F7B23D"></rect>
</svg>
